{"title":"True Grit 2010 SCR XViD - IMAGiNE","uid":6075976,"size":1467972296,"categoryP":"video","categoryS":"movies","magnet":"?xt=urn:btih:7f1ba01181dd892b780b1f6b34a17ea1281d5c61&amp;dn=True+Grit+2010+SCR+XViD+-+IMAGiNE&amp;tr=udp%3A%2F%2Ftracker.openbittorrent.com%3A80&amp;tr=udp%3A%2F%2Fopen.demonii.com%3A1337&amp;tr=udp%3A%2F%2Ftracker.coppersurfer.tk%3A6969&amp;tr=udp%3A%2F%2Fexodus.desync.com%3A6969","seeders":0,"leechers":1,"uploader":"neon","files":-1,"time":1293847989,"description":"True Grit 2010 SCR XViD - IMAGiNE\n\n********************************************************************************************************************\nRipper ...........: IMAGiNE IMDB Rating.......:8.5/10\nVideo Codec.......: XVID Release Date......:31/12/10\nAudio Codec.......:MP3 Theatre Date......:22/12/10\nAudio Bitrate.....:192 Runtime.......:1h 50mn\nSubtitles.........:NIL Language..........:ENGLISH\nResolution...... 720 x 304 IMDb URL.......... \n &lt;a href=&quot; http://www.imdb.com/title/tt1403865/&quot; rel=&quot;nofollow&quot; target=&quot;_NEW&quot;&gt; http://www.imdb.com/title/tt1403865/&lt;/a&gt;\n\nDETAILS:\n\nVideo\nID : 0\nFormat : MPEG-4 Visual\nFormat profile : Advanced Simple@L5\nFormat settings, BVOP : Yes\nFormat settings, QPel : No\nFormat settings, GMC : No warppoints\nFormat settings, Matrix : Default (H.263)\nMuxing mode : Packed bitstream\nCodec ID : XVID\nCodec ID/Hint : XviD\nDuration : 1h 50mn\nBit rate : 1 560 Kbps\nWidth : 720 pixels\nHeight : 304 pixels\nDisplay aspect ratio : 2.35:1\nFrame rate : 23.976 fps\nColor space : YUV\nChroma subsampling : 4:2:0\nBit depth : 8 bits\nScan type : Progressive\nBits/(Pixel*Frame) : 0.297\nStream size : 1.20 GiB (89%)\nWriting library : XviD 1.1.2 (UTC 2006-11-01)\n\nAudio\nID : 1\nFormat : MPEG Audio\nFormat version : Version 1\nFormat profile : Layer 3\nCodec ID : 55\nCodec ID/Hint : MP3\nDuration : 1h 50mn\nBit rate mode : Constant\nBit rate : 192 Kbps\nChannel(s) : 2 channels\nSampling rate : 44.1 KHz\nStream size : 151 MiB (11%)\nAlignment : Split accross interleaves\nInterleave, duration : 42 ms (1.00 video frame\nInterleave, preload duration : 500 ms\n\nSOURCES:\nVIDEO:True Grit.avi ................. Thanks LL\nAUDIO:True Grit.avi ................. Thanks LL\n\nNOTES:\n\nIMAGiNE bringing you another release..........True Grit 2010\n\nHere we go with another screener before we sign off for 2010 \nSame Q as our The fighter release.\nMore or less done the same type of work,crop,resixe,rgb eq,sharpness,brigthness and contrast.\nAudio was just muxed off the file we were sent.\n\n","torrent":{"xt":"urn:btih:7f1ba01181dd892b780b1f6b34a17ea1281d5c61","amp;dn":"True+Grit+2010+SCR+XViD+-+IMAGiNE","amp;tr":["udp%3A%2F%2Ftracker.openbittorrent.com%3A80","udp%3A%2F%2Fopen.demonii.com%3A1337","udp%3A%2F%2Ftracker.coppersurfer.tk%3A6969","udp%3A%2F%2Fexodus.desync.com%3A6969"],"infoHash":"7f1ba01181dd892b780b1f6b34a17ea1281d5c61","infoHashBuffer":{"type":"Buffer","data":[127,27,160,17,129,221,137,43,120,11,31,107,52,161,126,161,40,29,92,97]},"announce":[],"urlList":[]}}